<svg width="9" height="12" viewBox="0 0 9 12" fill="none" xmlns="http://www.w3.org/2000/svg">
<g id="Layer_1" clip-path="url(#clip0_70_628)">
<path id="Vector" d="M4.09671 0.0170264C2.15521 0.238932 0.690857 2.18488 0.855391 4.1991C1.08574 6.84491 3.42212 8.82499 4.22833 9.4395C4.39287 9.55899 4.60676 9.55899 4.75484 9.4395C5.59397 8.75671 8.16069 6.46937 8.16069 3.8065C8.16069 1.57037 6.30146 -0.221949 4.09671 0.0170264ZM4.50804 5.30863C3.70183 5.30863 3.06014 4.62585 3.06014 3.8065C3.06014 2.98715 3.71828 2.30437 4.50804 2.30437C5.2978 2.30437 5.95594 2.98715 5.95594 3.8065C5.95594 4.62585 5.2978 5.30863 4.50804 5.30863Z" fill="white"/>
<path id="Vector_2" d="M8.9836 11.1294L8.39128 8.31293C8.32546 7.98861 8.04575 7.7667 7.73314 7.7667H7.5357C6.99274 8.51777 6.26879 9.30298 5.28159 10.1053C5.06769 10.293 4.78798 10.3784 4.50828 10.3784C4.22857 10.3784 3.98177 10.293 3.76788 10.1223C3.20846 9.69558 2.23771 8.87623 1.41504 7.74963H1.26696C0.954347 7.74963 0.674639 7.98861 0.608826 8.31293L5.05745e-05 11.1465C-0.0986697 11.5903 0.230398 12 0.658186 12H8.29256C8.72034 12 9.04941 11.5903 8.95069 11.1465L8.9836 11.1294Z" fill="white"/>
</g>
<defs>
<clipPath id="clip0_70_628">
<rect width="9" height="12" fill="white"/>
</clipPath>
</defs>
</svg>
