<svg width="15" height="17" viewBox="0 0 15 17" xmlns="http://www.w3.org/2000/svg">
    <g clip-path="url(#clip0_23_2449)">
        <path
            d="M15.0002 0L14.0621 1.54823C13.1542 3.02516 11.8025 3.89095 9.79511 3.89095H9.42188L11.167 1.04913L11.7722 0L15.0002 0Z" />
        <path
            d="M12.1857 17H9.03842L5.31616 10.8274L3.7627 8.31156L5.33633 5.75494L6.90997 8.31156L9.75463 13.0479L12.1857 17Z" />
        <path
            d="M10.6019 7.27261L9.02822 9.81905L7.45458 7.27261L5.86077 4.67525L5.20509 3.60574L3.45996 0.774109H6.59715L8.35236 3.60574L9.00804 4.67525L9.02822 4.71599L10.6019 7.27261Z" />
        <path
            d="M0 17L0.93813 15.4518C1.846 13.9749 3.19771 13.1091 5.20511 13.1091H5.57835L3.83322 15.9509L3.22798 17H0Z" />
    </g>
    <defs>
        <clipPath id="clip0_23_2449">
            <rect width="15" height="17" />
        </clipPath>
    </defs>
</svg>