<svg width="11" height="12" viewBox="0 0 11 12" fill="none" xmlns="http://www.w3.org/2000/svg">
    <path id="Vector" fill-rule="evenodd" clip-rule="evenodd"
        d="M11 3.6529C11 2.52685 10.5435 1.55094 9.73365 0.800243C9.4097 0.499963 8.96795 -0.055555 8.48202 0.00450105C7.98137 0.0645571 7.61325 0.635089 7.36292 1.04047C6.92117 1.73111 6.21437 2.75206 6.86227 3.53279C7.1715 3.90814 7.65742 4.10332 7.95192 4.5087C8.24642 4.91408 8.06972 5.45459 7.8783 5.85996C7.42182 6.79083 6.65612 7.66164 5.87569 8.32226C5.52229 8.60753 5.05109 8.96786 4.57989 8.87778C4.07924 8.80271 3.71112 8.23218 3.34299 7.9319C2.41531 7.16618 1.38456 8.20215 0.707213 8.83274C0.368537 9.13302 -0.0143131 9.52338 0.000411878 9.98882C0.0298619 10.4693 0.633588 10.8746 0.972263 11.1449C1.88521 11.9106 3.01904 12.1508 4.16759 11.9106C5.40449 11.6404 6.44997 10.8897 7.37765 10.0489C8.32005 9.19307 9.12992 8.15711 9.822 7.09111C10.1459 6.58064 10.4257 6.07016 10.6319 5.48461C10.8527 4.86904 10.9264 4.26848 11 3.63789C10.9705 3.9682 11 3.0073 11 3.63789V3.6529Z" />
</svg>